<svg xmlns="http://www.w3.org/2000/svg" viewBox="0 0 1240 300" font-family="-apple-system,BlinkMacSystemFont,Segoe UI,Roboto,Helvetica,Arial,sans-serif">
<defs>
  <radialGradient id="src" cx="0.5" cy="0.5" r="0.5">
    <stop offset="0" stop-color="#eaf5ff"/><stop offset="1" stop-color="#4a9eff"/>
  </radialGradient>
  <radialGradient id="vign" cx="0.14" cy="0.5" r="0.95">
    <stop offset="0" stop-color="#12233f"/><stop offset="1" stop-color="#0b1220"/>
  </radialGradient>
  <filter id="glow" x="-80%" y="-80%" width="260%" height="260%">
    <feGaussianBlur stdDeviation="4" result="b"/><feMerge><feMergeNode in="b"/><feMergeNode in="SourceGraphic"/></feMerge>
  </filter>
  <filter id="soft" x="-140%" y="-140%" width="380%" height="380%"><feGaussianBlur stdDeviation="9"/></filter>
  <marker id="arw" viewBox="0 0 10 10" refX="7.5" refY="5" markerWidth="7" markerHeight="7" orient="auto-start-reverse">
    <path d="M0,0 L10,5 L0,10 z" fill="#63b3ed"/></marker>
  <marker id="arwd" viewBox="0 0 10 10" refX="7.5" refY="5" markerWidth="6.5" markerHeight="6.5" orient="auto-start-reverse">
    <path d="M0,0 L10,5 L0,10 z" fill="#4a9eff" opacity="0.8"/></marker>
</defs>
<rect width="1240" height="300" rx="18" fill="url(#vign)"/>
<path d="M 164.0 150.0 C 354.0 150.0 354.0 82.0 544.0 82.0" fill="none" stroke="#4a9eff" stroke-width="7" stroke-opacity="0.14" stroke-linecap="round" filter="url(#soft)"/><path d="M 164.0 150.0 C 354.0 150.0 354.0 82.0 544.0 82.0" fill="none" stroke="#5aa6ff" stroke-width="2.4" stroke-opacity="0.88" stroke-linecap="round" marker-end="url(#arw)"/>
<path d="M 164.0 150.0 C 354.0 150.0 354.0 150.0 544.0 150.0" fill="none" stroke="#4a9eff" stroke-width="7" stroke-opacity="0.14" stroke-linecap="round" filter="url(#soft)"/><path d="M 164.0 150.0 C 354.0 150.0 354.0 150.0 544.0 150.0" fill="none" stroke="#5aa6ff" stroke-width="2.4" stroke-opacity="0.88" stroke-linecap="round" marker-end="url(#arw)"/>
<path d="M 164.0 150.0 C 354.0 150.0 354.0 218.0 544.0 218.0" fill="none" stroke="#4a9eff" stroke-width="7" stroke-opacity="0.14" stroke-linecap="round" filter="url(#soft)"/><path d="M 164.0 150.0 C 354.0 150.0 354.0 218.0 544.0 218.0" fill="none" stroke="#5aa6ff" stroke-width="2.4" stroke-opacity="0.88" stroke-linecap="round" marker-end="url(#arw)"/>
<path d="M 576.0 82.0 C 737.5 82.0 737.5 150.0 899.0 150.0" fill="none" stroke="#4a9eff" stroke-width="7" stroke-opacity="0.14" stroke-linecap="round" filter="url(#soft)"/><path d="M 576.0 82.0 C 737.5 82.0 737.5 150.0 899.0 150.0" fill="none" stroke="#5aa6ff" stroke-width="2.4" stroke-opacity="0.88" stroke-linecap="round" marker-end="url(#arw)"/>
<path d="M 576.0 150.0 C 737.5 150.0 737.5 150.0 899.0 150.0" fill="none" stroke="#4a9eff" stroke-width="7" stroke-opacity="0.14" stroke-linecap="round" filter="url(#soft)"/><path d="M 576.0 150.0 C 737.5 150.0 737.5 150.0 899.0 150.0" fill="none" stroke="#5aa6ff" stroke-width="2.4" stroke-opacity="0.88" stroke-linecap="round" marker-end="url(#arw)"/>
<path d="M 576.0 218.0 C 737.5 218.0 737.5 150.0 899.0 150.0" fill="none" stroke="#4a9eff" stroke-width="7" stroke-opacity="0.14" stroke-linecap="round" filter="url(#soft)"/><path d="M 576.0 218.0 C 737.5 218.0 737.5 150.0 899.0 150.0" fill="none" stroke="#5aa6ff" stroke-width="2.4" stroke-opacity="0.88" stroke-linecap="round" marker-end="url(#arw)"/>
<line x1="929.0" y1="150.0" x2="1109.0" y2="150.0" stroke="#4a9eff" stroke-width="7.8" stroke-opacity="0.16" stroke-linecap="round" filter="url(#soft)"/><line x1="929.0" y1="150.0" x2="1109.0" y2="150.0" stroke="#5aa6ff" stroke-width="2.8" stroke-opacity="0.92" stroke-linecap="round" marker-end="url(#arw)"/>
<circle cx="150.0" cy="150.0" r="25.0" fill="#4a9eff" opacity="0.16" filter="url(#soft)"/><circle cx="150.0" cy="150.0" r="16.0" fill="none" stroke="#4a9eff" stroke-opacity="0.3" stroke-width="1.1"/><circle cx="150.0" cy="150.0" r="11.0" fill="url(#src)" fill-opacity="1.0" filter="url(#glow)"/>
<text x="150.0" y="184.0" text-anchor="middle" font-size="14" font-weight="600" fill="#dce8f7">Cross-domain</text>
<text x="150.0" y="201.0" text-anchor="middle" font-size="12" font-weight="500" fill="#7f97b8">task</text>
<circle cx="560.0" cy="82.0" r="22.0" fill="#4a9eff" opacity="0.16" filter="url(#soft)"/><circle cx="560.0" cy="82.0" r="13.0" fill="none" stroke="#4a9eff" stroke-opacity="0.3" stroke-width="1.1"/><circle cx="560.0" cy="82.0" r="8.0" fill="#4a9eff" fill-opacity="1.0" filter="url(#glow)"/>
<text x="560.0" y="112.0" text-anchor="middle" font-size="14" font-weight="600" fill="#dce8f7">Frontend</text>
<circle cx="560.0" cy="150.0" r="22.0" fill="#4a9eff" opacity="0.16" filter="url(#soft)"/><circle cx="560.0" cy="150.0" r="13.0" fill="none" stroke="#4a9eff" stroke-opacity="0.3" stroke-width="1.1"/><circle cx="560.0" cy="150.0" r="8.0" fill="#4a9eff" fill-opacity="1.0" filter="url(#glow)"/>
<text x="560.0" y="180.0" text-anchor="middle" font-size="14" font-weight="600" fill="#dce8f7">Payments</text>
<circle cx="560.0" cy="218.0" r="22.0" fill="#4a9eff" opacity="0.16" filter="url(#soft)"/><circle cx="560.0" cy="218.0" r="13.0" fill="none" stroke="#4a9eff" stroke-opacity="0.3" stroke-width="1.1"/><circle cx="560.0" cy="218.0" r="8.0" fill="#4a9eff" fill-opacity="1.0" filter="url(#glow)"/>
<text x="560.0" y="248.0" text-anchor="middle" font-size="14" font-weight="600" fill="#dce8f7">Accessibility</text>
<circle cx="915.0" cy="150.0" r="24.0" fill="#4a9eff" opacity="0.16" filter="url(#soft)"/><circle cx="915.0" cy="150.0" r="15.0" fill="none" stroke="#4a9eff" stroke-opacity="0.3" stroke-width="1.1"/><circle cx="915.0" cy="150.0" r="10.0" fill="#4a9eff" fill-opacity="1.0" filter="url(#glow)"/>
<text x="915.0" y="184.0" text-anchor="middle" font-size="14" font-weight="600" fill="#dce8f7">Reconciler</text>
<circle cx="1115.0" cy="150.0" r="23.0" fill="#4a9eff" opacity="0.16" filter="url(#soft)"/><circle cx="1115.0" cy="150.0" r="14.0" fill="none" stroke="#4a9eff" stroke-opacity="0.3" stroke-width="1.1"/><circle cx="1115.0" cy="150.0" r="9.0" fill="url(#src)" fill-opacity="1.0" filter="url(#glow)"/>
<text x="1115.0" y="184.0" text-anchor="middle" font-size="14" font-weight="600" fill="#dce8f7">One result</text>
<text x="560.0" y="278.0" text-anchor="middle" font-size="12.5" font-weight="500" fill="#6b86a8" font-style="italic">parallel specialists → one reconciled answer</text>
</svg>