<svg xmlns="http://www.w3.org/2000/svg" viewBox="0 0 1240 268" font-family="-apple-system,BlinkMacSystemFont,Segoe UI,Roboto,Helvetica,Arial,sans-serif">
<defs>
  <radialGradient id="src" cx="0.5" cy="0.5" r="0.5">
    <stop offset="0" stop-color="#eaf5ff"/><stop offset="1" stop-color="#4a9eff"/>
  </radialGradient>
  <radialGradient id="vign" cx="0.14" cy="0.5" r="0.95">
    <stop offset="0" stop-color="#12233f"/><stop offset="1" stop-color="#0b1220"/>
  </radialGradient>
  <filter id="glow" x="-80%" y="-80%" width="260%" height="260%">
    <feGaussianBlur stdDeviation="4" result="b"/><feMerge><feMergeNode in="b"/><feMergeNode in="SourceGraphic"/></feMerge>
  </filter>
  <filter id="soft" x="-140%" y="-140%" width="380%" height="380%"><feGaussianBlur stdDeviation="9"/></filter>
  <marker id="arw" viewBox="0 0 10 10" refX="7.5" refY="5" markerWidth="7" markerHeight="7" orient="auto-start-reverse">
    <path d="M0,0 L10,5 L0,10 z" fill="#63b3ed"/></marker>
  <marker id="arwd" viewBox="0 0 10 10" refX="7.5" refY="5" markerWidth="6.5" markerHeight="6.5" orient="auto-start-reverse">
    <path d="M0,0 L10,5 L0,10 z" fill="#4a9eff" opacity="0.8"/></marker>
</defs>
<rect width="1240" height="268" rx="18" fill="url(#vign)"/>
<line x1="150.0" y1="118.0" x2="1086.0" y2="118.0" stroke="#4a9eff" stroke-width="8" stroke-opacity="0.16" stroke-linecap="round" filter="url(#soft)"/><line x1="150.0" y1="118.0" x2="1086.0" y2="118.0" stroke="#5aa6ff" stroke-width="3" stroke-opacity="0.92" stroke-linecap="round" marker-end="url(#arw)"/>
<path d="M 1090.0 133 C 1090.0 214 150.0 214 150.0 133" fill="none" stroke="#4a9eff" stroke-opacity="0.55" stroke-width="1.9" marker-end="url(#arwd)"/>
<text x="620.0" y="233.0" text-anchor="middle" font-size="13" font-weight="500" fill="#82b1e8" font-style="italic">every task sharpens the next route</text>
<circle cx="150.0" cy="118.0" r="22.0" fill="#4a9eff" opacity="0.16" filter="url(#soft)"/><circle cx="150.0" cy="118.0" r="13.0" fill="none" stroke="#4a9eff" stroke-opacity="0.3" stroke-width="1.1"/><circle cx="150.0" cy="118.0" r="8.0" fill="url(#src)" fill-opacity="1.0" filter="url(#glow)"/>
<text x="150.0" y="98.0" text-anchor="middle" font-size="16" font-weight="600" fill="#dce8f7">Route</text>
<circle cx="385.0" cy="118.0" r="22.0" fill="#4a9eff" opacity="0.16" filter="url(#soft)"/><circle cx="385.0" cy="118.0" r="13.0" fill="none" stroke="#4a9eff" stroke-opacity="0.3" stroke-width="1.1"/><circle cx="385.0" cy="118.0" r="8.0" fill="#4a9eff" fill-opacity="1.0" filter="url(#glow)"/>
<text x="385.0" y="98.0" text-anchor="middle" font-size="16" font-weight="600" fill="#dce8f7">Execute</text>
<circle cx="620.0" cy="118.0" r="22.0" fill="#4a9eff" opacity="0.16" filter="url(#soft)"/><circle cx="620.0" cy="118.0" r="13.0" fill="none" stroke="#4a9eff" stroke-opacity="0.3" stroke-width="1.1"/><circle cx="620.0" cy="118.0" r="8.0" fill="#4a9eff" fill-opacity="1.0" filter="url(#glow)"/>
<text x="620.0" y="98.0" text-anchor="middle" font-size="16" font-weight="600" fill="#dce8f7">Outcome</text>
<circle cx="855.0" cy="118.0" r="22.0" fill="#4a9eff" opacity="0.16" filter="url(#soft)"/><circle cx="855.0" cy="118.0" r="13.0" fill="none" stroke="#4a9eff" stroke-opacity="0.3" stroke-width="1.1"/><circle cx="855.0" cy="118.0" r="8.0" fill="#4a9eff" fill-opacity="1.0" filter="url(#glow)"/>
<text x="855.0" y="98.0" text-anchor="middle" font-size="16" font-weight="600" fill="#dce8f7">Log</text>
<circle cx="1090.0" cy="118.0" r="22.0" fill="#4a9eff" opacity="0.16" filter="url(#soft)"/><circle cx="1090.0" cy="118.0" r="13.0" fill="none" stroke="#4a9eff" stroke-opacity="0.3" stroke-width="1.1"/><circle cx="1090.0" cy="118.0" r="8.0" fill="#4a9eff" fill-opacity="1.0" filter="url(#glow)"/>
<text x="1090.0" y="98.0" text-anchor="middle" font-size="16" font-weight="600" fill="#dce8f7">Hint</text>
</svg>